<mxfile host="65bd71144e" pages="4">
    <diagram name="Page-1" id="JdbE5H1p657IpXPrCgBd">
        <mxGraphModel dx="580" dy="642" grid="1" gridSize="10" guides="1" tooltips="1" connect="1" arrows="1" fold="1" page="1" pageScale="1" pageWidth="827" pageHeight="1169" background="#ffffff" math="0" shadow="0">
            <root>
                <mxCell id="0"/>
                <mxCell id="1" parent="0"/>
                <mxCell id="A8gqWdwiHM8_fTsKYuB1-10" value="" style="edgeStyle=orthogonalEdgeStyle;rounded=1;orthogonalLoop=1;jettySize=auto;html=1;labelBackgroundColor=none;strokeColor=#E07A5F;fontColor=default;align=center;fontStyle=1" parent="1" source="A8gqWdwiHM8_fTsKYuB1-1" target="A8gqWdwiHM8_fTsKYuB1-2" edge="1">
                    <mxGeometry relative="1" as="geometry"/>
                </mxCell>
                <mxCell id="A8gqWdwiHM8_fTsKYuB1-1" value="START" style="ellipse;whiteSpace=wrap;html=1;rounded=1;labelBackgroundColor=none;fillColor=#F2CC8F;strokeColor=#E07A5F;fontColor=#393C56;align=center;fontStyle=1" parent="1" vertex="1">
                    <mxGeometry x="354" y="118" width="120" height="80" as="geometry"/>
                </mxCell>
                <mxCell id="A8gqWdwiHM8_fTsKYuB1-9" value="" style="edgeStyle=orthogonalEdgeStyle;rounded=1;orthogonalLoop=1;jettySize=auto;html=1;labelBackgroundColor=none;strokeColor=#E07A5F;fontColor=default;align=center;fontStyle=1" parent="1" source="A8gqWdwiHM8_fTsKYuB1-2" target="A8gqWdwiHM8_fTsKYuB1-3" edge="1">
                    <mxGeometry relative="1" as="geometry"/>
                </mxCell>
                <mxCell id="A8gqWdwiHM8_fTsKYuB1-2" value="INPUT P, T, R" style="shape=parallelogram;perimeter=parallelogramPerimeter;whiteSpace=wrap;html=1;fixedSize=1;rounded=1;labelBackgroundColor=none;fillColor=#F2CC8F;strokeColor=#E07A5F;fontColor=#393C56;align=center;fontStyle=1" parent="1" vertex="1">
                    <mxGeometry x="299" y="268" width="230" height="60" as="geometry"/>
                </mxCell>
                <mxCell id="A8gqWdwiHM8_fTsKYuB1-8" value="" style="edgeStyle=orthogonalEdgeStyle;rounded=1;orthogonalLoop=1;jettySize=auto;html=1;labelBackgroundColor=none;strokeColor=#E07A5F;fontColor=default;align=center;fontStyle=1" parent="1" source="A8gqWdwiHM8_fTsKYuB1-3" target="A8gqWdwiHM8_fTsKYuB1-4" edge="1">
                    <mxGeometry relative="1" as="geometry"/>
                </mxCell>
                <mxCell id="A8gqWdwiHM8_fTsKYuB1-3" value="SI = ( P * T * R ) / 100" style="rounded=1;whiteSpace=wrap;html=1;labelBackgroundColor=none;fillColor=#F2CC8F;strokeColor=#E07A5F;fontColor=#393C56;align=center;fontStyle=1" parent="1" vertex="1">
                    <mxGeometry x="304" y="398" width="220" height="60" as="geometry"/>
                </mxCell>
                <mxCell id="A8gqWdwiHM8_fTsKYuB1-7" value="" style="edgeStyle=orthogonalEdgeStyle;rounded=1;orthogonalLoop=1;jettySize=auto;html=1;labelBackgroundColor=none;strokeColor=#E07A5F;fontColor=default;align=center;fontStyle=1" parent="1" source="A8gqWdwiHM8_fTsKYuB1-4" target="A8gqWdwiHM8_fTsKYuB1-5" edge="1">
                    <mxGeometry relative="1" as="geometry"/>
                </mxCell>
                <mxCell id="A8gqWdwiHM8_fTsKYuB1-4" value="OUTPUT SI" style="shape=parallelogram;perimeter=parallelogramPerimeter;whiteSpace=wrap;html=1;fixedSize=1;rounded=1;labelBackgroundColor=none;fillColor=#F2CC8F;strokeColor=#E07A5F;fontColor=#393C56;align=center;fontStyle=1" parent="1" vertex="1">
                    <mxGeometry x="299" y="518" width="230" height="60" as="geometry"/>
                </mxCell>
                <mxCell id="A8gqWdwiHM8_fTsKYuB1-5" value="END" style="ellipse;whiteSpace=wrap;html=1;rounded=1;labelBackgroundColor=none;fillColor=#F2CC8F;strokeColor=#E07A5F;fontColor=#393C56;align=center;fontStyle=1" parent="1" vertex="1">
                    <mxGeometry x="354" y="628" width="120" height="80" as="geometry"/>
                </mxCell>
                <mxCell id="A8gqWdwiHM8_fTsKYuB1-11" value="&lt;h1 style=&quot;margin-top: 0px;&quot;&gt;Calculate Simple Interest from Principal (P), Rate (R), &amp;amp; Time (T)&lt;br&gt;&lt;/h1&gt;" style="text;html=1;whiteSpace=wrap;overflow=hidden;rounded=1;labelBackgroundColor=none;fontColor=#393C56;align=center;fontStyle=0" parent="1" vertex="1">
                    <mxGeometry x="41" y="40" width="760" height="50" as="geometry"/>
                </mxCell>
            </root>
        </mxGraphModel>
    </diagram>
    <diagram id="J-Rkp3ffVKEP_151P3wW" name="Page-2">
        <mxGraphModel dx="580" dy="642" grid="1" gridSize="10" guides="1" tooltips="1" connect="1" arrows="1" fold="1" page="1" pageScale="1" pageWidth="827" pageHeight="1169" math="0" shadow="0">
            <root>
                <mxCell id="0"/>
                <mxCell id="1" parent="0"/>
                <mxCell id="tr5JZS70DwDR3OGpSvDC-1" value="" style="edgeStyle=orthogonalEdgeStyle;rounded=1;orthogonalLoop=1;jettySize=auto;html=1;labelBackgroundColor=none;strokeColor=#E07A5F;fontColor=default;align=center;fontStyle=1" parent="1" source="tr5JZS70DwDR3OGpSvDC-2" target="tr5JZS70DwDR3OGpSvDC-4" edge="1">
                    <mxGeometry relative="1" as="geometry"/>
                </mxCell>
                <mxCell id="tr5JZS70DwDR3OGpSvDC-2" value="START" style="ellipse;whiteSpace=wrap;html=1;rounded=1;labelBackgroundColor=none;fillColor=#F2CC8F;strokeColor=#E07A5F;fontColor=#393C56;align=center;fontStyle=1" parent="1" vertex="1">
                    <mxGeometry x="353" y="118" width="120" height="80" as="geometry"/>
                </mxCell>
                <mxCell id="tr5JZS70DwDR3OGpSvDC-3" value="" style="edgeStyle=orthogonalEdgeStyle;rounded=1;orthogonalLoop=1;jettySize=auto;html=1;labelBackgroundColor=none;strokeColor=#E07A5F;fontColor=default;align=center;fontStyle=1" parent="1" source="tr5JZS70DwDR3OGpSvDC-4" edge="1">
                    <mxGeometry relative="1" as="geometry">
                        <mxPoint x="413" y="398" as="targetPoint"/>
                    </mxGeometry>
                </mxCell>
                <mxCell id="tr5JZS70DwDR3OGpSvDC-4" value="INPUT A, B" style="shape=parallelogram;perimeter=parallelogramPerimeter;whiteSpace=wrap;html=1;fixedSize=1;rounded=1;labelBackgroundColor=none;fillColor=#F2CC8F;strokeColor=#E07A5F;fontColor=#393C56;align=center;fontStyle=1" parent="1" vertex="1">
                    <mxGeometry x="298" y="268" width="230" height="60" as="geometry"/>
                </mxCell>
                <mxCell id="tr5JZS70DwDR3OGpSvDC-5" value="END" style="ellipse;whiteSpace=wrap;html=1;rounded=1;labelBackgroundColor=none;fillColor=#F2CC8F;strokeColor=#E07A5F;fontColor=#393C56;align=center;fontStyle=1" parent="1" vertex="1">
                    <mxGeometry x="353" y="628" width="120" height="80" as="geometry"/>
                </mxCell>
                <mxCell id="tr5JZS70DwDR3OGpSvDC-6" value="&lt;h1 style=&quot;margin-top: 0px;&quot;&gt;Calculate Max of 2 Numbers&lt;br&gt;&lt;/h1&gt;" style="text;html=1;whiteSpace=wrap;overflow=hidden;rounded=1;labelBackgroundColor=none;fontColor=#393C56;align=center;" parent="1" vertex="1">
                    <mxGeometry x="40" y="40" width="760" height="50" as="geometry"/>
                </mxCell>
                <mxCell id="tr5JZS70DwDR3OGpSvDC-7" value="" style="edgeStyle=orthogonalEdgeStyle;rounded=0;orthogonalLoop=1;jettySize=auto;html=1;strokeColor=#E07A5F;fontColor=#393C56;fillColor=#F2CC8F;align=center;fontStyle=1" parent="1" source="tr5JZS70DwDR3OGpSvDC-9" target="tr5JZS70DwDR3OGpSvDC-11" edge="1">
                    <mxGeometry relative="1" as="geometry"/>
                </mxCell>
                <mxCell id="tr5JZS70DwDR3OGpSvDC-8" value="" style="edgeStyle=orthogonalEdgeStyle;rounded=0;orthogonalLoop=1;jettySize=auto;html=1;strokeColor=#E07A5F;fontColor=#393C56;fillColor=#F2CC8F;align=center;fontStyle=1" parent="1" source="tr5JZS70DwDR3OGpSvDC-9" target="tr5JZS70DwDR3OGpSvDC-13" edge="1">
                    <mxGeometry relative="1" as="geometry"/>
                </mxCell>
                <mxCell id="tr5JZS70DwDR3OGpSvDC-9" value="IF A &amp;gt; B" style="rhombus;whiteSpace=wrap;html=1;fillColor=#F2CC8F;strokeColor=#E07A5F;labelBackgroundColor=none;fontColor=#393C56;align=center;fontStyle=1" parent="1" vertex="1">
                    <mxGeometry x="373" y="400" width="80" height="80" as="geometry"/>
                </mxCell>
                <mxCell id="tr5JZS70DwDR3OGpSvDC-10" style="edgeStyle=orthogonalEdgeStyle;rounded=0;orthogonalLoop=1;jettySize=auto;html=1;strokeColor=#E07A5F;fontColor=#393C56;fillColor=#F2CC8F;align=center;fontStyle=1" parent="1" target="tr5JZS70DwDR3OGpSvDC-5" edge="1">
                    <mxGeometry relative="1" as="geometry">
                        <mxPoint x="268" y="578" as="sourcePoint"/>
                        <mxPoint x="362" y="668" as="targetPoint"/>
                        <Array as="points">
                            <mxPoint x="268" y="668"/>
                        </Array>
                    </mxGeometry>
                </mxCell>
                <mxCell id="tr5JZS70DwDR3OGpSvDC-11" value="OUTPUT A IS MAXIMUM" style="shape=parallelogram;perimeter=parallelogramPerimeter;whiteSpace=wrap;html=1;fixedSize=1;fillColor=#F2CC8F;strokeColor=#E07A5F;fontColor=#393C56;labelBackgroundColor=none;align=center;fontStyle=1" parent="1" vertex="1">
                    <mxGeometry x="209" y="518" width="120" height="60" as="geometry"/>
                </mxCell>
                <mxCell id="tr5JZS70DwDR3OGpSvDC-12" style="edgeStyle=orthogonalEdgeStyle;rounded=0;orthogonalLoop=1;jettySize=auto;html=1;strokeColor=#E07A5F;fontColor=#393C56;fillColor=#F2CC8F;align=center;fontStyle=1" parent="1" target="tr5JZS70DwDR3OGpSvDC-5" edge="1">
                    <mxGeometry relative="1" as="geometry">
                        <mxPoint x="571" y="578" as="sourcePoint"/>
                        <mxPoint x="485" y="668" as="targetPoint"/>
                        <Array as="points">
                            <mxPoint x="571" y="668"/>
                        </Array>
                    </mxGeometry>
                </mxCell>
                <mxCell id="tr5JZS70DwDR3OGpSvDC-13" value="OUTPUT B&lt;span style=&quot;background-color: initial;&quot;&gt;&amp;nbsp;IS MAXIMUM&lt;/span&gt;" style="shape=parallelogram;perimeter=parallelogramPerimeter;whiteSpace=wrap;html=1;fixedSize=1;fillColor=#F2CC8F;strokeColor=#E07A5F;fontColor=#393C56;labelBackgroundColor=none;align=center;fontStyle=1" parent="1" vertex="1">
                    <mxGeometry x="509" y="518" width="120" height="60" as="geometry"/>
                </mxCell>
                <mxCell id="tr5JZS70DwDR3OGpSvDC-14" value="YES" style="text;html=1;align=center;verticalAlign=middle;whiteSpace=wrap;rounded=0;fontColor=#393C56;fontStyle=1" parent="1" vertex="1">
                    <mxGeometry x="293" y="410" width="60" height="30" as="geometry"/>
                </mxCell>
                <mxCell id="tr5JZS70DwDR3OGpSvDC-15" value="NO" style="text;html=1;align=center;verticalAlign=middle;whiteSpace=wrap;rounded=0;fontColor=#393C56;fontStyle=1" parent="1" vertex="1">
                    <mxGeometry x="489" y="410" width="60" height="30" as="geometry"/>
                </mxCell>
            </root>
        </mxGraphModel>
    </diagram>
    <diagram id="MjmX95wDgLyiDItA9AFD" name="Page-3">
        <mxGraphModel dx="580" dy="642" grid="1" gridSize="10" guides="1" tooltips="1" connect="1" arrows="1" fold="1" page="1" pageScale="1" pageWidth="827" pageHeight="1169" math="0" shadow="0">
            <root>
                <mxCell id="0"/>
                <mxCell id="1" parent="0"/>
                <mxCell id="zZVXPug5P3VOYjDCNp6l-1" value="" style="edgeStyle=orthogonalEdgeStyle;rounded=1;orthogonalLoop=1;jettySize=auto;html=1;labelBackgroundColor=none;strokeColor=#E07A5F;fontColor=default;align=center;fontStyle=1" parent="1" source="zZVXPug5P3VOYjDCNp6l-2" target="zZVXPug5P3VOYjDCNp6l-4" edge="1">
                    <mxGeometry relative="1" as="geometry"/>
                </mxCell>
                <mxCell id="zZVXPug5P3VOYjDCNp6l-2" value="START" style="ellipse;whiteSpace=wrap;html=1;rounded=1;labelBackgroundColor=none;fillColor=#F2CC8F;strokeColor=#E07A5F;fontColor=#393C56;align=center;fontStyle=1" parent="1" vertex="1">
                    <mxGeometry x="353" y="118" width="120" height="80" as="geometry"/>
                </mxCell>
                <mxCell id="zZVXPug5P3VOYjDCNp6l-3" value="" style="edgeStyle=orthogonalEdgeStyle;rounded=0;orthogonalLoop=1;jettySize=auto;html=1;strokeColor=#E07A5F;fontColor=#393C56;fillColor=#F2CC8F;fontStyle=1" parent="1" source="zZVXPug5P3VOYjDCNp6l-4" target="zZVXPug5P3VOYjDCNp6l-17" edge="1">
                    <mxGeometry relative="1" as="geometry"/>
                </mxCell>
                <mxCell id="zZVXPug5P3VOYjDCNp6l-4" value="INPUT N" style="shape=parallelogram;perimeter=parallelogramPerimeter;whiteSpace=wrap;html=1;fixedSize=1;rounded=1;labelBackgroundColor=none;fillColor=#F2CC8F;strokeColor=#E07A5F;fontColor=#393C56;align=center;fontStyle=1" parent="1" vertex="1">
                    <mxGeometry x="298" y="268" width="230" height="60" as="geometry"/>
                </mxCell>
                <mxCell id="zZVXPug5P3VOYjDCNp6l-5" value="END" style="ellipse;whiteSpace=wrap;html=1;rounded=1;labelBackgroundColor=none;fillColor=#F2CC8F;strokeColor=#E07A5F;fontColor=#393C56;align=center;fontStyle=1" parent="1" vertex="1">
                    <mxGeometry x="353" y="774" width="120" height="80" as="geometry"/>
                </mxCell>
                <mxCell id="zZVXPug5P3VOYjDCNp6l-6" value="&lt;h1 style=&quot;margin-top: 0px;&quot;&gt;Calculate N Factorial&lt;br&gt;&lt;/h1&gt;" style="text;html=1;whiteSpace=wrap;overflow=hidden;rounded=1;labelBackgroundColor=none;fontColor=#393C56;align=center;" parent="1" vertex="1">
                    <mxGeometry x="40" y="40" width="760" height="50" as="geometry"/>
                </mxCell>
                <mxCell id="zZVXPug5P3VOYjDCNp6l-7" value="" style="edgeStyle=orthogonalEdgeStyle;rounded=0;orthogonalLoop=1;jettySize=auto;html=1;strokeColor=#E07A5F;fontColor=#393C56;fillColor=#F2CC8F;fontStyle=1" parent="1" source="zZVXPug5P3VOYjDCNp6l-9" target="zZVXPug5P3VOYjDCNp6l-15" edge="1">
                    <mxGeometry relative="1" as="geometry"/>
                </mxCell>
                <mxCell id="zZVXPug5P3VOYjDCNp6l-8" value="" style="edgeStyle=orthogonalEdgeStyle;rounded=0;orthogonalLoop=1;jettySize=auto;html=1;strokeColor=#E07A5F;fontColor=#393C56;fillColor=#F2CC8F;fontStyle=1" parent="1" source="zZVXPug5P3VOYjDCNp6l-9" target="zZVXPug5P3VOYjDCNp6l-11" edge="1">
                    <mxGeometry relative="1" as="geometry"/>
                </mxCell>
                <mxCell id="zZVXPug5P3VOYjDCNp6l-9" value="LOOP FROM i = 1 TO N" style="rhombus;whiteSpace=wrap;html=1;fillColor=#F2CC8F;strokeColor=#E07A5F;labelBackgroundColor=none;fontColor=#393C56;align=center;fontStyle=1" parent="1" vertex="1">
                    <mxGeometry x="312" y="489" width="201" height="130" as="geometry"/>
                </mxCell>
                <mxCell id="zZVXPug5P3VOYjDCNp6l-10" value="" style="edgeStyle=orthogonalEdgeStyle;rounded=0;orthogonalLoop=1;jettySize=auto;html=1;strokeColor=#E07A5F;fontColor=#393C56;fillColor=#F2CC8F;fontStyle=1" parent="1" source="zZVXPug5P3VOYjDCNp6l-11" target="zZVXPug5P3VOYjDCNp6l-5" edge="1">
                    <mxGeometry relative="1" as="geometry"/>
                </mxCell>
                <mxCell id="zZVXPug5P3VOYjDCNp6l-11" value="&lt;div&gt;OUTPUT FACTORIAL&lt;/div&gt;" style="shape=parallelogram;perimeter=parallelogramPerimeter;whiteSpace=wrap;html=1;fixedSize=1;fillColor=#F2CC8F;strokeColor=#E07A5F;fontColor=#393C56;labelBackgroundColor=none;align=center;fontStyle=1" parent="1" vertex="1">
                    <mxGeometry x="353" y="664" width="120" height="60" as="geometry"/>
                </mxCell>
                <mxCell id="zZVXPug5P3VOYjDCNp6l-12" value="YES" style="text;html=1;align=center;verticalAlign=middle;whiteSpace=wrap;rounded=0;fontColor=#393C56;labelBackgroundColor=none;fontStyle=1" parent="1" vertex="1">
                    <mxGeometry x="508" y="524" width="60" height="30" as="geometry"/>
                </mxCell>
                <mxCell id="zZVXPug5P3VOYjDCNp6l-13" value="NO" style="text;html=1;align=center;verticalAlign=middle;whiteSpace=wrap;rounded=0;fontColor=#393C56;labelBackgroundColor=none;fontStyle=1" parent="1" vertex="1">
                    <mxGeometry x="413" y="620" width="60" height="30" as="geometry"/>
                </mxCell>
                <mxCell id="zZVXPug5P3VOYjDCNp6l-14" style="edgeStyle=orthogonalEdgeStyle;rounded=0;orthogonalLoop=1;jettySize=auto;html=1;exitX=0.5;exitY=0;exitDx=0;exitDy=0;strokeColor=#E07A5F;fontColor=#393C56;fillColor=#F2CC8F;fontStyle=1" parent="1" edge="1">
                    <mxGeometry relative="1" as="geometry">
                        <mxPoint x="413" y="463" as="targetPoint"/>
                        <mxPoint x="668" y="537" as="sourcePoint"/>
                        <Array as="points">
                            <mxPoint x="668" y="463"/>
                        </Array>
                    </mxGeometry>
                </mxCell>
                <mxCell id="zZVXPug5P3VOYjDCNp6l-15" value="FACTORIAL = FACTORIAL * i" style="rounded=0;whiteSpace=wrap;html=1;labelBackgroundColor=none;fillColor=#F2CC8F;strokeColor=#E07A5F;fontColor=#393C56;fontStyle=1" parent="1" vertex="1">
                    <mxGeometry x="579" y="524" width="180" height="60" as="geometry"/>
                </mxCell>
                <mxCell id="zZVXPug5P3VOYjDCNp6l-16" value="" style="edgeStyle=orthogonalEdgeStyle;rounded=0;orthogonalLoop=1;jettySize=auto;html=1;strokeColor=#E07A5F;fontColor=#393C56;fillColor=#F2CC8F;fontStyle=1" parent="1" source="zZVXPug5P3VOYjDCNp6l-17" target="zZVXPug5P3VOYjDCNp6l-9" edge="1">
                    <mxGeometry relative="1" as="geometry"/>
                </mxCell>
                <mxCell id="zZVXPug5P3VOYjDCNp6l-17" value="INITIALIZE FACTORIAL =1" style="rounded=0;whiteSpace=wrap;html=1;labelBackgroundColor=none;fillColor=#F2CC8F;strokeColor=#E07A5F;fontColor=#393C56;fontStyle=1" parent="1" vertex="1">
                    <mxGeometry x="318" y="380" width="190" height="60" as="geometry"/>
                </mxCell>
            </root>
        </mxGraphModel>
    </diagram>
    <diagram id="TcXwtIRKQozmmYSNq4Yc" name="Page-4">
        <mxGraphModel dx="580" dy="642" grid="1" gridSize="10" guides="1" tooltips="1" connect="1" arrows="1" fold="1" page="1" pageScale="1" pageWidth="827" pageHeight="1169" math="0" shadow="0">
            <root>
                <mxCell id="0"/>
                <mxCell id="1" parent="0"/>
                <mxCell id="YTb-mlJiqB6IKi4hOwAe-1" value="" style="edgeStyle=orthogonalEdgeStyle;rounded=1;orthogonalLoop=1;jettySize=auto;html=1;labelBackgroundColor=none;strokeColor=#E07A5F;fontColor=default;align=center;fontStyle=1" parent="1" source="YTb-mlJiqB6IKi4hOwAe-2" target="YTb-mlJiqB6IKi4hOwAe-4" edge="1">
                    <mxGeometry relative="1" as="geometry"/>
                </mxCell>
                <mxCell id="YTb-mlJiqB6IKi4hOwAe-2" value="START" style="ellipse;whiteSpace=wrap;html=1;rounded=1;labelBackgroundColor=none;fillColor=#F2CC8F;strokeColor=#E07A5F;fontColor=#393C56;align=center;fontStyle=1" parent="1" vertex="1">
                    <mxGeometry x="353" y="118" width="120" height="80" as="geometry"/>
                </mxCell>
                <mxCell id="YTb-mlJiqB6IKi4hOwAe-3" value="" style="edgeStyle=orthogonalEdgeStyle;rounded=0;orthogonalLoop=1;jettySize=auto;html=1;labelBackgroundColor=none;strokeColor=#E07A5F;fontColor=default;fontStyle=1" parent="1" source="YTb-mlJiqB6IKi4hOwAe-4" target="YTb-mlJiqB6IKi4hOwAe-9" edge="1">
                    <mxGeometry relative="1" as="geometry"/>
                </mxCell>
                <mxCell id="YTb-mlJiqB6IKi4hOwAe-4" value="INPUT AGE" style="shape=parallelogram;perimeter=parallelogramPerimeter;whiteSpace=wrap;html=1;fixedSize=1;rounded=1;labelBackgroundColor=none;fillColor=#F2CC8F;strokeColor=#E07A5F;fontColor=#393C56;align=center;fontStyle=1" parent="1" vertex="1">
                    <mxGeometry x="298" y="268" width="230" height="60" as="geometry"/>
                </mxCell>
                <mxCell id="YTb-mlJiqB6IKi4hOwAe-5" value="END" style="ellipse;whiteSpace=wrap;html=1;rounded=1;labelBackgroundColor=none;fillColor=#F2CC8F;strokeColor=#E07A5F;fontColor=#393C56;align=center;fontStyle=1" parent="1" vertex="1">
                    <mxGeometry x="353" y="628" width="120" height="80" as="geometry"/>
                </mxCell>
                <mxCell id="YTb-mlJiqB6IKi4hOwAe-6" value="&lt;h1 style=&quot;margin-top: 0px;&quot;&gt;Driving License Eligibility&lt;br&gt;&lt;/h1&gt;" style="text;html=1;whiteSpace=wrap;overflow=hidden;rounded=1;labelBackgroundColor=none;fontColor=#393C56;align=center;" parent="1" vertex="1">
                    <mxGeometry x="40" y="40" width="760" height="50" as="geometry"/>
                </mxCell>
                <mxCell id="YTb-mlJiqB6IKi4hOwAe-7" value="" style="edgeStyle=orthogonalEdgeStyle;rounded=0;orthogonalLoop=1;jettySize=auto;html=1;strokeColor=#E07A5F;fontColor=default;fillColor=#F2CC8F;align=center;labelBackgroundColor=none;fontStyle=1" parent="1" source="YTb-mlJiqB6IKi4hOwAe-9" target="YTb-mlJiqB6IKi4hOwAe-11" edge="1">
                    <mxGeometry relative="1" as="geometry"/>
                </mxCell>
                <mxCell id="YTb-mlJiqB6IKi4hOwAe-8" value="" style="edgeStyle=orthogonalEdgeStyle;rounded=0;orthogonalLoop=1;jettySize=auto;html=1;strokeColor=#E07A5F;fontColor=default;fillColor=#F2CC8F;align=center;labelBackgroundColor=none;fontStyle=1" parent="1" source="YTb-mlJiqB6IKi4hOwAe-9" target="YTb-mlJiqB6IKi4hOwAe-13" edge="1">
                    <mxGeometry relative="1" as="geometry"/>
                </mxCell>
                <mxCell id="YTb-mlJiqB6IKi4hOwAe-9" value="IF AGE &amp;gt;= 18" style="rhombus;whiteSpace=wrap;html=1;fillColor=#F2CC8F;strokeColor=#E07A5F;labelBackgroundColor=none;fontColor=#393C56;align=center;fontStyle=1" parent="1" vertex="1">
                    <mxGeometry x="338" y="400" width="150" height="80" as="geometry"/>
                </mxCell>
                <mxCell id="YTb-mlJiqB6IKi4hOwAe-10" style="edgeStyle=orthogonalEdgeStyle;rounded=0;orthogonalLoop=1;jettySize=auto;html=1;strokeColor=#E07A5F;fontColor=default;fillColor=#F2CC8F;align=center;labelBackgroundColor=none;fontStyle=1" parent="1" target="YTb-mlJiqB6IKi4hOwAe-5" edge="1">
                    <mxGeometry relative="1" as="geometry">
                        <mxPoint x="268" y="578" as="sourcePoint"/>
                        <mxPoint x="362" y="668" as="targetPoint"/>
                        <Array as="points">
                            <mxPoint x="268" y="668"/>
                        </Array>
                    </mxGeometry>
                </mxCell>
                <mxCell id="YTb-mlJiqB6IKi4hOwAe-11" value="&lt;div&gt;OUTPUT&lt;/div&gt;ELIGIBLE FOR&lt;div&gt;DRIVING&amp;nbsp;&lt;/div&gt;&lt;div&gt;LICENSE&lt;/div&gt;" style="shape=parallelogram;perimeter=parallelogramPerimeter;whiteSpace=wrap;html=1;fixedSize=1;fillColor=#F2CC8F;strokeColor=#E07A5F;fontColor=#393C56;labelBackgroundColor=none;align=center;fontStyle=1" parent="1" vertex="1">
                    <mxGeometry x="209" y="518" width="120" height="60" as="geometry"/>
                </mxCell>
                <mxCell id="YTb-mlJiqB6IKi4hOwAe-12" style="edgeStyle=orthogonalEdgeStyle;rounded=0;orthogonalLoop=1;jettySize=auto;html=1;strokeColor=#E07A5F;fontColor=default;fillColor=#F2CC8F;align=center;labelBackgroundColor=none;fontStyle=1" parent="1" target="YTb-mlJiqB6IKi4hOwAe-5" edge="1">
                    <mxGeometry relative="1" as="geometry">
                        <mxPoint x="571" y="578" as="sourcePoint"/>
                        <mxPoint x="485" y="668" as="targetPoint"/>
                        <Array as="points">
                            <mxPoint x="571" y="668"/>
                        </Array>
                    </mxGeometry>
                </mxCell>
                <mxCell id="YTb-mlJiqB6IKi4hOwAe-13" value="OUTPUT&amp;nbsp;&lt;span style=&quot;background-color: initial;&quot;&gt;NOT&amp;nbsp;&lt;/span&gt;&lt;div&gt;&lt;div&gt;ELIGIBLE FOR&lt;div&gt;DRIVING&amp;nbsp;&lt;/div&gt;&lt;div&gt;LICENSE&lt;/div&gt;&lt;/div&gt;&lt;/div&gt;" style="shape=parallelogram;perimeter=parallelogramPerimeter;whiteSpace=wrap;html=1;fixedSize=1;fillColor=#F2CC8F;strokeColor=#E07A5F;fontColor=#393C56;labelBackgroundColor=none;align=center;fontStyle=1" parent="1" vertex="1">
                    <mxGeometry x="509" y="518" width="120" height="60" as="geometry"/>
                </mxCell>
                <mxCell id="YTb-mlJiqB6IKi4hOwAe-14" value="YES" style="text;html=1;align=center;verticalAlign=middle;whiteSpace=wrap;rounded=0;fontColor=#393C56;labelBackgroundColor=none;fontStyle=1" parent="1" vertex="1">
                    <mxGeometry x="293" y="410" width="60" height="30" as="geometry"/>
                </mxCell>
                <mxCell id="YTb-mlJiqB6IKi4hOwAe-15" value="NO" style="text;html=1;align=center;verticalAlign=middle;whiteSpace=wrap;rounded=0;fontColor=#393C56;labelBackgroundColor=none;fontStyle=1" parent="1" vertex="1">
                    <mxGeometry x="489" y="410" width="60" height="30" as="geometry"/>
                </mxCell>
            </root>
        </mxGraphModel>
    </diagram>
</mxfile>